/* XPM */
static char *_9630078ee894f15971c9ebb718ed74f7JM26L5RVwCpidfn[] = {
/* columns rows colors chars-per-pixel */
"40 40 32 1 ",
"  c None",
". c black",
"X c #880015",
"o c #ED1C24",
"O c #F25058",
"+ c gray63",
"@ c white",
"g c #337504",
"G c #317105",
"x c #337404",
"u c #337604",
"0 c #327205",
"- c #317205",
"$ c #327304",
"% c #327305",
"; c #337803",
": c #337703",
"> c #337705",
"< c #327604",
"= c #357A05",
"& c #327404",
"1 c #337603",
"2 c #327504",
"4 c #306D05",
"5 c #306E05",
"8 c #316F05",
"9 c #327204",
"w c #327104",
"a c #357B05",
"U c #337605",
"e c #337704",
"q c #347704",
/* pixels */
"GGGGgggggggggggggggggggggggggggggggggggg",
"gxxggggggggggggggggggggggggggggggggggggg",
"uggggggggggggggggggggggggggggggggggggggg",
"ggggggggggggggggggg.......gggggggggggggg",
"GGGGGGGggggggggg...OOOOOOO...ggggggggggg",
"GGGGGGGgggggggg.OOOoooooooooo.gggggggggg",
"GGGGGGGgggggg..Ooooooooooooooo..gggggggg",
"GGGGGGGGGGxg.Ooooooooooooooooooo.g0GGGGG",
"GGGGGGGGGGg.Ooooooooooooooooooooo.-GGGGG",
"---GGGGGGGg.Ooooooooooooooooooooo.-GGGGG",
"gggGGGGGGG.Ooooooooooooooooooooooo.gg$GG",
"gggGGGGGG.OoooooooooooooooooooooooX.g%GG",
"ggg000000.OoooooooooooooooooooooooX.x0GG",
"ggggggggg.Ooooooooooooooooooooooooo.GGGG",
"gggggggg.OoooooooooooooooooooooooooX.GGG",
"::uggggg.Oooooooooooooo...ooooo.oooX.$$$",
";;:ggggg.Ooooooooooooo.++@.ooo.+.ooX.:;;",
";;:ggggg.Ooooooooooooo.@@@.ooo.@.ooX.;;;",
";;;:::gg.Ooooooooooooo.@@@.ooo.@.ooX.;;;",
";;;;;;gg.Oooooooooooooo...ooooo.oooX.;;;",
";;;;;;gg.OoooooooooooooooooooooooooX.;;;",
"GG1;;1GGG.ooooooooooooooooooooooooX.;;;;",
"GG:;;<GGG.ooooooooooooooooooooooooX.;;;;",
"GG;;;2GGG.ooooooooooooooooooooooooX.;;;;",
"gggggggggG.ooooooooooooooooooooooX.;2555",
"gggggggggGG.ooooooooooooooooooooX.;;&444",
"ggggggggxGG.ooooooooooooooooooooX.;;$444",
"ggggg8444444.ooooooooooooooooooX.GGGGGGG",
"ggggg54444444..ooooooooooooooX..gGGGGGGG",
"ggxxg5444444444.oooooooooooXX.gggGGGGGG-",
"g9444GGGUaaaaaaa...XXXXXXX...ggggggggggg",
"gw444GGG>aaaaaaaaaa.......gggggggggggggg",
"g9888--->===aa.....aaaegg.....gggggggggg",
"gggggggggggu..ooooo..a;;.ooooo.ggggggggg",
"ggggggggggg.ooooooooo.;.ooooooX.gggggggg",
"ggggggggggg.ooooooooo.;;.oXXXX.uuuuuuugg",
"ggggggggggg.oooooooXX.;;;.....;;;;;;;;;u",
"gggggggggggg..XXXXX..;;;;uggg;;;;;;;;;;u",
":gggu:euuuuuuu.....;;;;;;:uuu;;;;;;;<<<&",
";ggg:;;;;;;;;;;ggg:;;;;;;;;;;;;;;;;<GGGG"
};
