/* XPM */
static char *_9630078ee894f15971c9ebb718ed74f7JM26L5RVwCpidfn[] = {
/* columns rows colors chars-per-pixel */
"40 40 7 1 ",
"  c None",
". c black",
"X c #880015",
"o c #ED1C24",
"O c #F25058",
"+ c gray63",
"@ c white",
/* pixels */
"                                        ",
"                                        ",
"                                        ",
"                   .......              ",
"                ...OOOOOOO...           ",
"               .OOOoooooooooo.          ",
"             ..Ooooooooooooooo..        ",
"            .Ooooooooooooooooooo.       ",
"           .Ooooooooooooooooooooo.      ",
"           .Ooooooooooooooooooooo.      ",
"          .Ooooooooooooooooooooooo.     ",
"         .OoooooooooooooooooooooooX.    ",
"         .OoooooooooooooooooooooooX.    ",
"         .Ooooooooooooooooooooooooo.    ",
"        .OoooooooooooooooooooooooooX.   ",
"        .Oooooooooooooo...ooooo.oooX.   ",
"        .Ooooooooooooo.++@.ooo.+.ooX.   ",
"        .Ooooooooooooo.@@@.ooo.@.ooX.   ",
"        .Ooooooooooooo.@@@.ooo.@.ooX.   ",
"        .Oooooooooooooo...ooooo.oooX.   ",
"        .OoooooooooooooooooooooooooX.   ",
"         .ooooooooooooooooooooooooX.    ",
"         .ooooooooooooooooooooooooX.    ",
"         .ooooooooooooooooooooooooX.    ",
"          .ooooooooooooooooooooooX.     ",
"           .ooooooooooooooooooooX.      ",
"           .ooooooooooooooooooooX.      ",
"            .ooooooooooooooooooX.       ",
"             ..ooooooooooooooX..        ",
"               .oooooooooooXX.          ",
"                ...XXXXXXX...           ",
"                   .......              ",
"              .....      .....          ",
"            ..ooooo..   .ooooo.         ",
"           .ooooooooo. .ooooooX.        ",
"           .ooooooooo.  .oXXXX.         ",
"           .oooooooXX.   .....          ",
"            ..XXXXX..                   ",
"              .....                     ",
"                                        "
};
