/* XPM */
static char *_68ea1df1bfc49e8f23fb1d7e7c0374fy45ezKMaJUiXvsYH[] = {
/* columns rows colors chars-per-pixel */
"40 40 35 1 ",
"  c #317105",
". c #337504",
"X c #337404",
"o c #337604",
"O c #327205",
"+ c #317205",
"@ c #357B05",
"# c #347905",
"$ c #327304",
"% c #327305",
"& c #327404",
"* c #347805",
"= c #357A05",
"- c #347804",
"; c #337803",
": c #337703",
"> c #337705",
", c #347A04",
"< c #327604",
"1 c #337603",
"2 c #327504",
"3 c #306F05",
"4 c #306D05",
"5 c #306E05",
"6 c #327503",
"7 c #327603",
"8 c #316F05",
"9 c #327204",
"0 c #337605",
"q c #347704",
"w c #327104",
"e c #337704",
"r c #347904",
"t c #337804",
"y c white",
/* pixels */
"    ....................................",
".XX.....................................",
"o.......................................",
"........................................",
"       .................................",
"       .................................",
"       .................................",
"          X.......................O     ",
"          ........................+     ",
"+++       ........................+     ",
"...       .......@@@@@@@@@@@@@#......$  ",
"...       ......o@@@@@@@@@@@@@#......%  ",
"...OOOOOOO...X&&.*##@@@@@@@===-...XXXO  ",
".............+      =@@@@@@;;;;;;;      ",
".............       @@@@@@@;;;;;;:      ",
"::o..........%%%O   >>>*,,,;;;;;;:   $$$",
";;:.............%      <;;;;;;;;;1   :;;",
";;:.............O      <;;;;;;;;;<   ;;;",
";;;:::.......:::o<<<222;;;;;;;;;;:222;;;",
";;;;;;.......;;;;;;;;;;;;;;;;;;;;;;;;;;;",
";;;;;;......o;;;;;;;;;;;;;;;;;;;;;;;;;;;",
"  1;;1      ++++;;;;;;;;;;:ooo;;;;;;;;;;",
"  :;;<          ;;;;;;;;;;o...;;;;;;;;;;",
"  ;;;2          ;;;;;;;;;;o...;;;;;;;;;;",
".........   3444444&;;;;;;;;;:...;;;2555",
".........   54444446;;;;;;;;;:...;;;&444",
"........X   54444447;;;;;;;;;:...;;;$444",
".....84444444445      %..........       ",
".....54444444443      %..........       ",
"..XX.54444444443      $..........      +",
".9444   0@@@@@@@@@@@@@q.................",
".w444   >@@@@@@@@@@@@@q.................",
".9888+++>===@@@@@@@@@@e.................",
"...........o@@@@@@@@@@;;;:..............",
"...........q@@@@@@@@@@;;;:..............",
"...........o###@@@@,,,;;;:...ooooooooo..",
"...............@@@,;;;;;;o...;;;;;;;;;;o",
"...............@@@r;;;;;;o...;;;;;;;;;;o",
":...o:eoooooooo***t;;;;;;:ooo;;;;;;;<<<&",
";...:;;;;;;;;;;...:;;;;;;;;;;;;;;;;<    "
};
