/* XPM */
static char *ef27446132514308cd12a16304f5f3d8iewGS6aYbz5yvm0j[] = {
/* columns rows colors chars-per-pixel */
"40 40 77 1 ",
"  c None",
". c #354344",
"X c #3D4949",
"o c #444B4A",
"O c #474D4B",
"+ c #485150",
"@ c #535450",
"% c #585652",
"& c #505856",
"* c #5A5853",
"- c #5C5953",
": c #5E5A54",
"> c #655E57",
", c #665F58",
"< c #676059",
"1 c #69615A",
"2 c #6A635B",
"4 c #6D665F",
"5 c #626662",
"7 c #6A6A66",
"8 c #6B6C67",
"9 c #706860",
"q c #746C64",
"e c #776F68",
"r c #787068",
"t c #7F776F",
"y c #857D75",
"u c #848078",
"s c #8A8178",
"f c #8A8279",
"g c #8C847C",
"h c #968D83",
"j c #978E84",
"k c #9A9187",
"l c #A39A90",
"x c #A49B91",
"v c #A79E95",
"b c #A9A097",
"m c #ABA199",
"N c #ACA39A",
"B c #ADA49A",
"V c #AEA49C",
"S c #B0A69E",
"F c #B2A89F",
"G c #B7ADA4",
"J c #BCB2A9",
"Q c #317105",
"W c #337504",
"E c #337404",
"R c #337604",
"T c #327205",
"Y c #317205",
"U c #357B05",
"I c #347905",
"P c #327304",
"A c #327305",
"D c #327404",
"H c #347805",
"= c #357A05",
"; c #337803",
"K c #337703",
"L c #337705",
"Z c #347A04",
"C c #327604",
"M c #337603",
"w c #347804",
"i c #327504",
"3 c #306F05",
"p c #306D05",
"a c #306E05",
"d c #316F05",
"z c #327204",
"c c #347704",
"n c #327104",
"? c #337704",
"_ c #347904",
"! c #337804",
/* pixels */
"QQQQWWWWWWWWWWWWWWWWWWWWWWWWWWWWWWWWWWWW",
"WEEWWWWWWWWWWWWWWWWWWWWWWWWWWWWWWWWWWWWW",
"RWWWWWWWWWWWWWWWWWWWWWWWWWWWWWWWWWWWWWWW",
"WWWWWWWWWWWWWWWWWWWWWWWWWWWWWWWWWWWWWWWW",
"QQQQQQQWWWWWWWWWWWWWWWWWWWWWWWWWWWWWWWWW",
"QQQQQQQWWWWWWWWWWWWWWWWWWWWWWWWWWWWWWWWW",
"QQQQQQQWWWWWWWWWWWWWWWWWWWWWWWWWWWWWWWWW",
"QQQQQQQQQQEWWWWWWWWWWWWWWWWWWWWWWWTQQQQQ",
"QQQQQQQQQQWWWWWWWWWWWWWWWWWWWWWWWWYQQQQQ",
"YYYQQQQQQQWWWWWWWWWWWWWWWWWWWWWWWWYQQQQQ",
"WWWQQQQQQQWWWWWWWUUUUUUUUUUUUUIWWWWWWPQQ",
"WWWQQQQQQQWWWWWWRUUUUUUUUUUUUUIWWWWWWAQQ",
"WWWTTTTTTTWWWEDDWHIIUUUUUUU===nWWWEEETQQ",
"WWWWWWWWWWWWW>>>>>>>>>%......;;;;;QQQQQQ",
"WWWWWWWWWWWWW>>>>>>>>>:......;;;;KQQQQQQ",
"KKRWWWWWW>>>>>>>NFSVSVbuuuX......KQQQPPP",
";;KWWWWWWW>>>>>>VJJJJJJjjj+......MQQQK;;",
";;KWWWWWWW>>>>>>vJJJJJJhjj&......CQQQ;;;",
";;;KKK>>>>>>>JJJJJJJJJJJJJy>>*......i;;;",
";;;;;;>>>>>>>JJJJJJJJJJJJJg>>:......;;;;",
";;;;;;>>>1qqqBFFGJJJJJJBNmu-:%.......;;;",
"QQM>>>>>>1jjjjjjvJJJJJJe>,@..........;;;",
"QQK>>>>>>>jjjjjjxJJJJJJt>>%..........;;;",
"QQ;>><9sssjjjjjjkllllxx7Ooo..........;;;",
"WWW>>>9kjjjjjjjjjjjjjjj5.............aaa",
"WWW>>>4jjjjjjjjjjjjjjjj8.............ppp",
"WWW>>>2jjjjjjjjjjjjj9>>@..........;;Pppp",
"WWWW>><jjjjjjjjjjjjjq>>%..........QQQQQQ",
"WWWW>>>jjjjjjjjjjhhhr>>-..........QQQQQQ",
"WWEEWapjjjjjjjjjj1>>>>>>>>>WWWWWWQQQQQQY",
"WzpppQQjjjjjjjjjh4>>>>>>>>>WWWWWWWWWWWWW",
"WnpppQQQjjjjjjjjj4>>>>>>>>>WWWWWWWWWWWWW",
"WzdddYYYL===UUUUUUUUUU?WWWWWWWWWWWWWWWWW",
"WWWWWWWWWWWRUUUUUUUUUU;;;KWWWWWWWWWWWWWW",
"WWWWWWWWWWWcUUUUUUUUUU;;;KWWWWWWWWWWWWWW",
"WWWWWWWWWWWRIIIUUUUZZZ;;;KWWWRRRRRRRRRWW",
"WWWWWWWWWWWWWWWUUUZ;;;;;;RWWW;;;;;;;;;;R",
"WWWWWWWWWWWWWWWUUU_;;;;;;RWWW;;;;;;;;;;R",
"KWWWRK?RRRRRRRRHHH!;;;;;;KRRR;;;;;;;CCCD",
";WWWK;;;;;;;;;;WWWK;;;;;;;;;;;;;;;;CQQQQ"
};
