/* XPM */
static char *_5082dbe5dc34380c18c6110720bafa5m6O3hRecunQeiApw[] = {
/* columns rows colors chars-per-pixel */
"180 60 31 1 ",
"  c black",
". c gray1",
"X c #040404",
"o c gray2",
"O c #070707",
"+ c #090909",
"@ c #0B0B0B",
"# c #0C0C0C",
"$ c gray6",
"% c #111111",
"& c gray7",
"* c gray8",
"= c #161616",
"- c #285904",
"; c #306D05",
": c #306E05",
"> c #306F05",
", c #327603",
"< c #317104",
"1 c #317105",
"2 c #317204",
"3 c #317305",
"4 c #327305",
"5 c #337404",
"6 c #327405",
"7 c #347704",
"8 c #347705",
"9 c #337803",
"0 c #337804",
"q c #347805",
"w c #357B05",
/* pixels */
"                                                                                                                                                                                    ",
"                                                                                                                                                                                    ",
"                                                                                                                                                                                    ",
" 111;;;;;;;1111111111111111115q61777676767766767676767761111;;;;;;;111121111111111116767677696q56q6767766111611111166767676767765qqq7777667111111167667656q56q6q99999999999999111qw ",
" 5696111555755556756551115566155555955557759777755657555555511;5677555555555611115555755765965655569755556661111111697555qqq9q9q9q9qq9q977516111111777155695565575999999999999111qw ",
" 5551111576956955755551115597769695556965155179557956595559611155196555695567111555559655555959555557195565511111119555599wqqqwqwwwwqwwq71555751111116555575595511199999999999999ww ",
" 6551116695755q55557511177557955551755595595565556559565567111175969556965555111975555755655655597159565595511111115597577qqwwwwwwwwwwwq56955561111115597555965511199999999999999wq ",
" q5556775559691755116211611775556951171111655955797965555555575555555555561111116557969659516161177775555695555667155617117qqwwwwwwwq99976756511111675569695555511156599999999999wq ",
" q55596556975555q611111155596965715111111169657q5569655965555965776755775,111111555596555511111111559656555917555579571111111qwwwwww9999997111111155555975565556222211,999999999999 ",
" 6555555595577556611111155555595765111111695955655577655556955971176555q61111111q65579559511111117695559557776556556571;111157wwwqww99999551111115955756557967561226115999999999999 ",
" 59655q69655q1;;;;;;;;;;1111111111111155755575q9995999qq5597q517q7575;;;;;;;;;;21111111111111565795599995,97677q97555571711111q19qq99999996111699599979q555599q66655556qq9999999999 ",
" 5$++++++++++++++++++++++++++++*1-++++++++++++++++++++++++++++=5-++++++++++++++++++++++++++++-5575559999++++++++++++#5677O+++++++++++@9------------9++++++++++++++++++++++++++++++9 ",
" qo                            +1-                            #5-                            -6571599999             q777             9            9                              9 ",
" 9o                            @6-                            +7-                            -7755511115            X9997             9o           9                              6 ",
" 9o                            +7-                            @7-                            -7995571119             q996             9            9                              q ",
" 9o  oooooo o         oXooXoo  @6-   oXooXooo oXooooooo oXO   @6-   o o ooooo    ooo oXooo   -5665571119   oooo oo   9999   ooooooo   9o  @@@+@+   9    ooooo o        oooo oo    7 ",
" 9o  1111111-o      -11111111  +5-   -55555571q11159999999-   @1-  -111111111o  O111117655-  -5957555551   9912211   ++oo  Oq999999   9   q99999+  ;   11111111-      -099999q7   7 ",
" 9o  71111111#      -11111111  #q-   65q9655557;11599999999.  @1-  -111111111o  O111177717-  -5559659551   9q22211         o999999q   q   999999+  ;   11111111-      -0999955q   6 ",
" 6o  11111111#      -111111;1  +1-   7515596557161695999966X  @1-  -111111111+  O111;51767-  -q555756561   9961211         o9999996   9X  991999+  1   11111111-      -09999559   6 ",
" 6o  11111111#      -11111;;;  @;-   7575579557755955595q11X  #1-  -111111111o  O;;;;;;;;;-  -6596969555   5175561         O9999999   6   997;;;+  1   55555796-      -66955556   7 ",
" 1o  11;11111#      -1;11;;;;  +;-   55169q755q755559775511   @1-  -111111111o  +;;;;;;;;;-  -5575555555   q555561   oooX  o9,59999   7   991;;;+  6   66555565-+oo   -75565556   6 ",
" 7o  767;;;11#      -65555511  +;-   111176111#oO@595571556o  @1-  -111111177o  o1;1;;;;;;-  -5555555596   6555511   ;;;;  O9799679   7o  991;;;+  q   q97655559567   -65755577   7 ",
" 7o  677;;;11#      -75555776  @;-   ;;1111111+  X555555667o  @1-  -111111q17O  +555;;;;;;-  -;122111167   q5;;;;;  o;;11  o1155177   7   111116+  6   557111557557   -79755557   7 ",
" 7o  716;;;11#      -q55557q1  +;-   ;;1111111+  X595691777   @1-  -111111176o  O55q1;;;;;-  -;112221656   77;;;;;   ;;11  O1169768   7   111117+  q   559111559556   -1695556q   6 ",
" 6o  ;;;;;;11#      -55552;11  +9-   797951111+  o557555555X  @;-  -115555557o  O511155522-  -1616;11166   11;;171  X71q6  o66q6655   7   166115+  6   q97111596597   -75556qq5   6 ",
" 7o  ----;111171676775551----  #9-   ,99951116+  o551q95695X  @;-  -115555957o  O;;;995959-  -99q922166q   ;1111qw++@qqww++#wq,q955   7   567575+  1   ;;;;;;555965+o+-q559wwwq   q ",
" 6o   X. ;1;1177776917555 o o  +9-   999991116+  o675565555o  @;-  -167755657o  o;;;999999-  -9996221955   ;1;1qqwww7qwwwwwwwq55556   6o  595555+  7   ;;;;;;55655556955557qwww   w ",
" ;o      175766751571;;;5      +9-   91;;11117+  o976111;;1   @1-  -551796957O  o555955999-  -7611221555   17516qqqwwwwwwwwww965567   q   565579+  6   ;;;11155596555555677qwqw   w ",
" ;o      177775556557;;;7      +9-   9;;;;1115+  o691111;;;X  @1-  -765965551o  O65965q999-  -;;;1111977   76557q55wwwwwwwwww999967   2o  6q7556+  1   11556565669555651111111w   w ",
" ;o      171179559551;;;7      +5-   9;;;11115+  o55111;;;;X  @1-  -675595561O  +655959999-  -;;;1116655   q9559q59wwqwwwwwww999,77   5   559655+  1   11555595957577971111111q   w ",
" 7o      7565555515971676      #q-   ;;;;1116q+  o551115592X  @7-  -759569695o  o5596556q5-  -;;;1115555   6755655q999wwwww9q999556   ,X  965957+  1   67555965555595561111116q   w ",
" 7o      ----96957777----      +6-   ;;;;11166+  o561115555o  @9-  -156555555o  +555975565-  -;;;1115556   5555555779---w9999999779   9o  996757+  7   696557969---655979711111   w ",
" 7o         *q6769755+         @6-   ;;;;1116q+  o611167575X  #6-  -795556557O  O595555571-  -;;;1115559   6775555556+  w9999999555   9   999955+  7   65555555-   1555q5522111   w ",
" 1o         %67155555+         +;-   999999999+  o611111;15X  #6-  -565559595O  O565951;;;-  -9999959995   95,9999999+  q9999999969   ,o  665566+  6   q9999996-   756969665176   q ",
" 1o         $55555555+         @;-   999999999+  o111111215X  #5-  -559796555O  O59665;;;;-  -9999999999   9599999999O  99999999999   9   611111+  9   99999999-   755999999999   1 ",
" 1o         $55579655O         +;-   999999999----1111112,5X  +5-  -656555555O  O55555;;;;-  -9999999996   9999999999@  q9999999999   9o  111111+  6   99995999-   795999999999   1 ",
" 6---       $q5555656O       ---1-   999999511111175q155151o  #5-  -6975959697755511111119-  -9999951111   7799999@@@   o@@%9999999   1o  111155+  9   9999,767-   @+@-66999999   6 ",
" 6111       $65571977+       6111-   9999996111111717757621   +7-  -5555657955715911111119-  -9999951111   6569999         O9999999   6   111755+  9   99991;1;-      -11999999   q ",
" 1111       $59677557+       1616-   9999991111111551571562X  +q-  -5555795555555611111169-  -9999911111   5559999         o9999999   1X  111559+  9   999q1111-      -21999999   9 ",
" 7778       $55567555o       q999-   9961111116655569567556X  #6-  -7965565556955955699999-  -961,111165   7969559         O517999q   7   677199+  9   66161111-      -56955999   9 ",
" 6556       #qq767767+       9999-   9961111116767667776767.  +7-  -q7716q55556q596q5999q9-  -9622;11165   66q5569         O6q59q07   6   779qqq+  q   71111117-      -67717599   9 ",
" 95577676--            66q6575799-                            #7-   +++++++++@++++++++++++   -9622111155   @++++++          +++++++   7o   o o o   9   o+++++++.       +++++++o   9 ",
" q65651q9--            7q55519696-                            #7-                            -9999665596                              6            9                              q ",
" 7955575q--            6555796957-                            +7-                            -9999q65575                              7            9                              q ",
" 77155557--            7565597556-                            @9-                            -9999697555                              7            9                   o          q ",
" 65557556--            7595569559-                            @6-                            -7111111111             Xooo             7o           9            oXo               q ",
" 59677777--            6515955579-                            @5-                            -7;11111111            o5915             1            9           7766               w ",
" 11661111--            9577755599-                            @7-                            -1111111111             5676             7X           9           6177               q ",
" ;;111111--            7975569696-                            @1-                            -6755111111            o,556             1o           5           9999               w ",
" ;;;11111--            8655557557-                            #1-                            -9651111111             555q             1            7           9999               w ",
" 715,5755--oooooOoooooO6556556957-OOXOOoOOOOOOOOOOOXOO+oOOOOOO%1-XoOOoOOOooooooooOoOoo+oOooOO-7956161111o+oooOoOOooo+7577OoOOooOooooo+1*%==%=***=%*7oOoOoOoOOoO9999OOooOOoOOOooO+ow ",
" 775155555q5q111777777q1579555751555577655557155755551115555755577761;2166qq77779555q7,57177555655555111111677957qqwwwqwqwwwwwwwqqq5q775611111156q1776796111699999999999999qwwwwwww ",
" 655755955966111655777555557777755555q5555655795657;2115597155955555511155757;q75965557755559655555911111117655577qwwwwwwwwwwwwwq5565166111111;7q5557556q11155999999999999qwwwwwqww ",
" 55756565116111195597155555;111665657155559759655555115555775565555561115q1757575555571755655555965666161111955571qqqwwwwwwwwwww96595776111;1157759696555111,q999999999999wwwwwwqqw ",
" q6969591111111175567q557711;111157555969755555559975696555159715111121155715555q5111211117595975559567955755561;11116wwwwwwq99999991111116q7577967559555111111;9999999999999999971 ",
" 7955556711111115557117577111111659655796557965q96695955695777675111221169q17555661;2211175565695796555696551761;1111qwwwwww999999951111111q77;q75555695511111179999999999999999911 ",
" 6766;1;;;1;;;1116116116111116665675q99969997,56767767667677611111;1;1;15567117566111111167676765969q6776q66q56161111qwqwwqwq999999611111166767655697677711111169999999999999999911 ",
"                                                                                                                                                                                    ",
"                                                                                                                                                                                    ",
"                                                                                                                                                                                    "
};
